<svg width="14" height="14" viewBox="0 0 14 14" fill="none" xmlns="http://www.w3.org/2000/svg">
    <path fill-rule="evenodd" clip-rule="evenodd"
          d="M7 0.4375C3.37563 0.4375 0.4375 3.37563 0.4375 7C0.4375 10.6244 3.37563 13.5625 7 13.5625C10.6244 13.5625 13.5625 10.6244 13.5625 7C13.5625 3.37563 10.6244 0.4375 7 0.4375ZM1.5625 7C1.5625 3.99695 3.99695 1.5625 7 1.5625C10.003 1.5625 12.4375 3.99695 12.4375 7C12.4375 10.003 10.003 12.4375 7 12.4375C3.99695 12.4375 1.5625 10.003 1.5625 7Z"
          fill="#0088CC"/>
    <path d="M6.364 10.831V5.5285H7.6765V10.831H6.364ZM6.2905 4.531V3.25H7.75V4.531H6.2905Z" fill="#0088CC"/>
</svg>
