<svg width="36" height="36" viewBox="0 0 36 36" fill="none" xmlns="http://www.w3.org/2000/svg">
    <path d="M18 36C27.9411 36 36 27.9411 36 18C36 8.05887 27.9411 0 18 0C8.05887 0 0 8.05887 0 18C0 27.9411 8.05887 36 18 36Z"
          fill="#0088CC"/>
    <path fill-rule="evenodd" clip-rule="evenodd"
          d="M13.234 12.0001L22.8404 12C23.1803 12 23.5199 12.0535 23.8748 12.2308C24.3003 12.4432 24.5259 12.7781 24.6839 13.0258C24.6962 13.0451 24.7077 13.0649 24.7184 13.0853C24.9042 13.4397 25 13.8224 25 14.234C25 14.6252 24.9131 15.0513 24.7184 15.4227C24.7165 15.4263 24.7146 15.4298 24.7127 15.4333L18.6436 26.6035C18.5097 26.8499 18.2634 27.001 17.9974 27C17.7313 26.999 17.486 26.846 17.3538 26.5986L11.3961 15.4523C11.3943 15.4493 11.3926 15.4463 11.3909 15.4432C11.2546 15.2025 11.0437 14.8302 11.0068 14.3498C10.9729 13.908 11.0656 13.4653 11.2728 13.0815C11.48 12.6977 11.7919 12.3908 12.167 12.203C12.5693 12.0016 12.9769 12.0001 13.234 12.0001ZM17.2553 13.5958H13.234C12.9698 13.5958 12.8684 13.6132 12.7975 13.6487C12.6995 13.6977 12.6171 13.7784 12.5621 13.8804C12.507 13.9824 12.4821 14.1007 12.4912 14.219C12.4964 14.2869 12.5222 14.3645 12.6745 14.6335C12.6776 14.6391 12.6808 14.6448 12.6838 14.6505L17.2553 23.2034V13.5958ZM18.7447 13.5958V23.2456L23.4221 14.637C23.4748 14.5342 23.5106 14.3857 23.5106 14.234C23.5106 14.111 23.4868 14.0042 23.4336 13.8941C23.3778 13.808 23.3438 13.7625 23.3153 13.7313C23.2909 13.7046 23.2721 13.6903 23.2456 13.6771C23.135 13.6218 23.0218 13.5958 22.8404 13.5958H18.7447Z"
          fill="white"/>
</svg>
